<svg width="640" height="640" viewBox="0 0 640 640" fill="none" xmlns="http://www.w3.org/2000/svg">
  <!-- Background -->
  <rect width="640" height="640" fill="#0A0E27"/>
  
  <!-- Gradient Background -->
  <defs>
    <radialGradient id="bg1" cx="30%" cy="30%">
      <stop offset="0%" style="stop-color:#00D9FF;stop-opacity:0.2" />
      <stop offset="100%" style="stop-color:#00D9FF;stop-opacity:0" />
    </radialGradient>
    <radialGradient id="bg2" cx="70%" cy="70%">
      <stop offset="0%" style="stop-color:#FF6B9D;stop-opacity:0.15" />
      <stop offset="100%" style="stop-color:#FF6B9D;stop-opacity:0" />
    </radialGradient>
    <linearGradient id="gradient1" x1="0%" y1="0%" x2="100%" y2="100%">
      <stop offset="0%" style="stop-color:#00D9FF" />
      <stop offset="100%" style="stop-color:#FF6B9D" />
    </linearGradient>
    <linearGradient id="gradient2" x1="0%" y1="0%" x2="100%" y2="0%">
      <stop offset="0%" style="stop-color:#FFD93D" />
      <stop offset="100%" style="stop-color:#00D9FF" />
    </linearGradient>
  </defs>
  
  <circle cx="192" cy="192" r="300" fill="url(#bg1)"/>
  <circle cx="448" cy="448" r="300" fill="url(#bg2)"/>
  
  <!-- House Icon -->
  <g transform="translate(320, 250)">
    <!-- Roof -->
    <path d="M -120 0 L 0 -100 L 120 0 Z" fill="url(#gradient1)" stroke="#0A0E27" stroke-width="8"/>
    
    <!-- House Body -->
    <rect x="-100" y="0" width="200" height="160" rx="12" fill="url(#gradient2)" stroke="#0A0E27" stroke-width="8"/>
    
    <!-- Door -->
    <rect x="-30" y="80" width="60" height="80" rx="8" fill="#0A0E27" stroke="url(#gradient1)" stroke-width="4"/>
    
    <!-- Windows -->
    <rect x="-80" y="40" width="40" height="40" rx="6" fill="#0A0E27" stroke="url(#gradient1)" stroke-width="3"/>
    <rect x="40" y="40" width="40" height="40" rx="6" fill="#0A0E27" stroke="url(#gradient1)" stroke-width="3"/>
  </g>
  
  <!-- Percentage Symbol -->
  <g transform="translate(320, 450)">
    <circle cx="-60" cy="-40" r="25" fill="none" stroke="url(#gradient1)" stroke-width="8"/>
    <circle cx="60" cy="40" r="25" fill="none" stroke="url(#gradient2)" stroke-width="8"/>
    <line x1="-70" y1="-50" x2="70" y2="50" stroke="url(#gradient1)" stroke-width="10" stroke-linecap="round"/>
  </g>
  
  <!-- Decorative Elements -->
  <circle cx="120" cy="120" r="6" fill="#00D9FF" opacity="0.6"/>
  <circle cx="520" cy="140" r="8" fill="#FF6B9D" opacity="0.5"/>
  <circle cx="100" cy="520" r="7" fill="#FFD93D" opacity="0.5"/>
  <circle cx="540" cy="500" r="5" fill="#00D9FF" opacity="0.6"/>
</svg>
